<svg id="Capa_1" enable-background="new 0 0 512 512" height="512" viewBox="0 0 512 512" width="512" xmlns="http://www.w3.org/2000/svg" xmlns:xlink="http://www.w3.org/1999/xlink"><linearGradient id="SVGID_1_" gradientUnits="userSpaceOnUse" x1="256" x2="256" y1="451" y2="61"><stop offset="0" stop-color="#fd3a84"/><stop offset="1" stop-color="#ffa68d"/></linearGradient><g><g><path d="m497 61h-482c-8.291 0-15 6.709-15 15v360c0 8.291 6.709 15 15 15h482c8.271 0 15-6.791 15-15v-360c0-8.291-6.709-15-15-15zm-467 360v-8.789l164.755-163.755 109.526 136.919c2.666 3.325 6.636 5.361 10.884 5.596 4.248.41 8.438-1.333 11.44-4.365l49.395-49.395 83.789 83.789zm452-21.211-95.395-94.395c-5.859-5.859-15.352-5.859-21.211 0l-48.149 48.149-109.526-136.918c-2.666-3.325-6.636-5.361-10.884-5.596-4.189-.073-8.438 1.348-11.44 4.365l-155.395 154.395v-278.789h452zm-136-158.789c24.814 0 45-20.186 45-45s-20.186-45-45-45-45 20.186-45 45 20.186 45 45 45zm0-60c8.276 0 15 6.724 15 15s-6.724 15-15 15-15-6.724-15-15 6.724-15 15-15z" fill="url(#SVGID_1_)"/></g></g></svg>